# xmcd
#
# Track frame offsets: 
#        150
#        21255
#        37624
#        54918
#        79929
#        103969
#        126044
#        148985
#        170431
#
# Disc length: 2535 seconds
#
# Revision: 0
# Processed by: cddbd v1.5.2PL0 Copyright (c) Steve Scherf et al.
# Submitted via: ExactAudioCopy v1.1
#
DISCID=7309e509
DTITLE=冥月 - 沉溺
DYEAR=2017
DGENRE=Pop
TTITLE0=冥月;Mario - 不正常恋爱物语
TTITLE1=矫饰
TTITLE2=8RAiN_H●1E
TTITLE3=世界穿行的我
TTITLE4=DIVER-GENT
TTITLE5=4:04 am
TTITLE6=触手可及的世界
TTITLE7=一起
TTITLE8=GRUMPY CAT
EXTD=
EXTT0=
EXTT1=
EXTT2=
EXTT3=
EXTT4=
EXTT5=
EXTT6=
EXTT7=
EXTT8=
PLAYORDER=
